<?xml version="1.0" encoding="utf-8"?><svg viewBox="0 0 141 32" xmlns="http://www.w3.org/2000/svg" xmlns:xlink="http://www.w3.org/1999/xlink"><style>:root>svg{display:none}:root>svg:target{display:block}</style><svg viewBox="0 0 51 32" id="arrow-down" xmlns="http://www.w3.org/2000/svg"><path d="M22.762 29.539 1.039 6.426c-1.383-1.47-1.383-3.854 0-5.324 1.381-1.47 3.622-1.47 5.003 0l19.222 20.451L44.485 1.102c1.382-1.47 3.622-1.47 5.004 0s1.382 3.853 0 5.324L27.765 29.539c-.691.735-1.596 1.102-2.501 1.102s-1.811-.368-2.502-1.102z"/></svg><svg viewBox="0 0 32 32" id="arrow-left" xmlns="http://www.w3.org/2000/svg"><path d="m6.69 17.667 10.488 10.488-2.357 2.357L.309 16 14.821 1.488l2.357 2.357L6.69 14.333H31v3.333H6.69z"/></svg><svg viewBox="0 0 20 32" id="arrow-more" xmlns="http://www.w3.org/2000/svg"><path d="M18.462 17.352 4.016 30.929c-.919.864-2.409.864-3.327 0s-.919-2.264 0-3.127l12.782-12.014L.689 3.775C-.23 2.911-.23 1.511.689.648s2.408-.864 3.327 0l14.446 13.577c.459.432.689.997.689 1.563s-.23 1.132-.689 1.564z"/></svg><svg viewBox="0 0 19 32" id="arrow-right" xmlns="http://www.w3.org/2000/svg"><path d="m.678 4.656 2.2-2.2L16.422 16 2.878 29.544l-2.2-2.2L12.023 16 .678 4.655z"/></svg><svg viewBox="0 0 68 32" id="arrow-spoller" xmlns="http://www.w3.org/2000/svg"><path d="m35.87 4.431 28.067 21.572c1.786 1.372 1.786 3.597 0 4.969-1.785 1.372-4.68 1.372-6.464 0L32.638 11.884 7.804 30.971c-1.785 1.372-4.68 1.372-6.465 0s-1.785-3.596 0-4.969L29.407 4.43c.893-.686 2.062-1.028 3.231-1.028s2.34.343 3.232 1.029z"/></svg><svg viewBox="0 0 30 32" id="cart" xmlns="http://www.w3.org/2000/svg"><path d="M4.378 2.117H0V.705h4.378c1.272 0 2.356.925 2.556 2.181l.592 3.719h20.438A1.647 1.647 0 0 1 29.56 8.66l-1.789 6.997a3.53 3.53 0 0 1-3.419 2.655H9.39l.387 2.429c.091.571.583.992 1.162.992h15.606v1.412H10.939a2.589 2.589 0 0 1-2.556-2.181L5.541 3.109a1.177 1.177 0 0 0-1.162-.992zm4.787 14.784h15.187c.968 0 1.812-.656 2.052-1.593l1.789-6.997a.235.235 0 0 0-.228-.294H7.752L9.166 16.9zM12.771 29.954c-.705 0-1.364-.608-1.364-1.468s.659-1.468 1.364-1.468c.705 0 1.364.608 1.364 1.468s-.659 1.468-1.364 1.468zm0 1.411c1.533 0 2.776-1.29 2.776-2.88s-1.243-2.88-2.776-2.88c-1.533 0-2.776 1.29-2.776 2.88s1.243 2.88 2.776 2.88zM24.985 29.954c-.705 0-1.364-.608-1.364-1.468s.659-1.468 1.364-1.468c.705 0 1.364.608 1.364 1.468s-.659 1.468-1.364 1.468zm0 1.411c1.533 0 2.776-1.29 2.776-2.88s-1.243-2.88-2.776-2.88c-1.533 0-2.776 1.29-2.776 2.88s1.243 2.88 2.776 2.88z"/></svg><svg viewBox="0 0 32 32" id="clock" xmlns="http://www.w3.org/2000/svg"><path d="M16 30C8.268 30 2 23.732 2 16S8.268 2 16 2s14 6.268 14 14-6.268 14-14 14zm0 2c8.837 0 16-7.163 16-16S24.837 0 16 0 0 7.163 0 16s7.163 16 16 16z"/><path d="M16 9a1 1 0 0 0-2 0v8a1 1 0 0 0 2 0V9z"/><path d="M15 16a1 1 0 0 0 0 2h6a1 1 0 0 0 0-2h-6z"/></svg><svg viewBox="0 0 33 32" id="compare" xmlns="http://www.w3.org/2000/svg"><path d="m33.223 16.035-.028.014L28.42 4.166h2.179a.707.707 0 1 0 0-1.414H17.287V.708a.707.707 0 1 0-1.414 0v2.037H2.568a.707.707 0 1 0 0 1.414h2.271L.057 16.035a.717.717 0 0 0-.057.262 5.881 5.881 0 1 0 11.762 0 .697.697 0 0 0-.057-.262L6.931 4.152h8.941v21.871c-3.374.255-6.012 2.306-6.012 4.789 0 .391.317.707.707.707h12.025a.707.707 0 0 0 .707-.707c0-2.483-2.638-4.534-6.012-4.789V4.152h9.033l-4.746 11.883a.717.717 0 0 0-.057.262 5.881 5.881 0 1 0 11.762 0 .697.697 0 0 0-.057-.262zM5.878 20.774a4.47 4.47 0 0 1-4.407-3.756h8.785a4.47 4.47 0 0 1-4.378 3.756zm4.124-5.17H1.769L5.893 5.341l4.11 10.263zm11.756 14.5H11.396c.523-1.521 2.681-2.695 5.178-2.695s4.661 1.174 5.185 2.695zm5.609-24.757 4.11 10.256h-8.233l4.124-10.256zm0 15.427v.007a4.47 4.47 0 0 1-4.378-3.763h8.785a4.47 4.47 0 0 1-4.407 3.756z"/></svg><svg viewBox="0 0 44 32" id="email" xmlns="http://www.w3.org/2000/svg"><path d="M19.939 17.107 1.724 3.445l1.477-1.969 18.215 13.662a1.232 1.232 0 0 0 1.477 0L41.108 1.476l1.477 1.969L24.37 17.107a3.692 3.692 0 0 1-4.431 0z"/><path d="M39.385 2.462a2.462 2.462 0 0 1 2.462 2.462v22.154a2.462 2.462 0 0 1-2.462 2.462H4.923a2.462 2.462 0 0 1-2.462-2.462V4.924a2.462 2.462 0 0 1 2.462-2.462h34.462zM4.923 0A4.923 4.923 0 0 0 0 4.923v22.154A4.923 4.923 0 0 0 4.923 32h34.462a4.923 4.923 0 0 0 4.923-4.923V4.923A4.923 4.923 0 0 0 39.385 0H4.923z"/></svg><svg viewBox="0 0 36 32" id="favorite" xmlns="http://www.w3.org/2000/svg"><path d="M25.729 0c-3.051 0-5.907 1.291-7.808 3.455C16.019 1.291 13.163 0 10.112 0 4.537 0 .001 4.24.001 9.453c0 4.081 2.603 8.802 7.737 14.031 3.951 4.024 8.249 7.14 9.473 7.999l.71.498.71-.498c1.223-.859 5.522-3.975 9.473-7.999 5.134-5.229 7.738-9.95 7.738-14.031C35.842 4.241 31.306 0 25.731 0zm.632 21.99c-3.25 3.31-6.746 5.985-8.442 7.219-1.695-1.233-5.191-3.909-8.441-7.219-4.655-4.741-7.115-9.076-7.115-12.537 0-3.994 3.476-7.244 7.748-7.244 2.812 0 5.408 1.433 6.775 3.739l1.033 1.743 1.033-1.743c1.367-2.306 3.964-3.739 6.775-3.739 4.273 0 7.748 3.249 7.748 7.244 0 3.461-2.46 7.797-7.116 12.537z"/></svg><svg viewBox="0 0 21 32" id="location" xmlns="http://www.w3.org/2000/svg"><path d="M10.353 0C4.644 0 0 4.895 0 10.913c0 2.033.534 4.017 1.545 5.738l8.218 13.96c.157.267.435.43.733.43h.007a.855.855 0 0 0 .733-.442l8.009-14.095a11.353 11.353 0 0 0 1.46-5.591C20.705 4.896 16.061 0 10.352 0zm7.412 15.57-7.281 12.814-7.472-12.691a9.448 9.448 0 0 1-1.298-4.78c0-5.014 3.882-9.106 8.639-9.106s8.633 4.092 8.633 9.106a9.46 9.46 0 0 1-1.221 4.657z"/><path d="M10.353 4.599a5.757 5.757 0 0 0-5.752 5.748 5.742 5.742 0 0 0 5.752 5.748c3.253 0 5.752-2.634 5.752-5.748 0-3.17-2.58-5.748-5.752-5.748zm0 9.594a3.85 3.85 0 0 1-3.847-3.845c0-2.113 1.733-3.845 3.847-3.845s3.841 1.732 3.841 3.845c0 2.087-1.682 3.845-3.841 3.845z"/></svg><svg viewBox="0 0 141 32" id="logo" xmlns="http://www.w3.org/2000/svg"><path d="M71.38 28.542s.838-.406 2.308-.953c.758.362 2.417 1.117 4.025 1.581 2.176.628 3.626.532 5.657.532s4.93-.338 4.93-.338-.435-1.595-.483-2.755c-.048-1.16-.048-1.354-.048-1.354s-.435 1.644-.339 2.514c.097.87.097 1.16.097 1.16s-3.819.387-6.526.097c-2.707-.29-4.351-.58-5.511-.967a46.763 46.763 0 0 0-1.668-.519 46.888 46.888 0 0 1 9.113-2.333c6.768-1.015 5.414-.677 5.414-.677s.145-.29 1.015-.386c.871-.097 9.765-.532 12.521-.339s10.345.58 11.457 1.305 1.547 1.45 1.209 3.239-1.015 3.529-1.643 3.142c-.629-.387-2.756-2.03-4.786-2.32s-4.255-.242-5.173 0c-.918.242-2.466 1.209-3.19.967s-2.175-1.595-3.335-1.112c-1.16.483-1.209.628-1.741 1.305s-1.257 1.451-1.837.725c-.58-.725-1.644-1.064-2.562-1.112s-1.741.242-1.983.483c-.242.242-.58.725-.58.725s-1.499-.387-3.239-.193c-1.74.193-4.737.338-6.768-.048s-6.333-2.369-6.333-2.369zm18.274.58s1.934-.338 2.659.193.87.967 2.175-.097c1.305-1.064 2.127-1.837 3.577-1.064s2.128 1.257 3.529.532c1.402-.725 4.448-1.499 7.01-.435s4.544 2.756 4.93 1.692c.387-1.064.58-2.224-1.401-2.659s-4.931-.919-7.638-.483c-2.707.435-3.19 1.692-4.302 1.353s-2.32-1.353-3.674-.822c-1.354.532-2.514 2.176-3.626 1.644s-1.886-1.015-2.562-.677c-.677.338-.677.822-.677.822zM1.132.255v7.189h.331c.026-.412.089-.829.196-1.245a7.6 7.6 0 0 1 .399-1.211c.161-.383.348-.731.561-1.045.208-.31.438-.561.68-.756.178-.148.408-.289.692-.425s.625-.247 1.02-.331a6.58 6.58 0 0 1 1.372-.136h5.405L.418 17.948l.051.153h16.443v-8.26h-.331c-.026.468-.073.943-.14 1.423-.072.48-.17.948-.297 1.402a6.913 6.913 0 0 1-.501 1.266c-.204.387-.45.722-.744 1.007a3.73 3.73 0 0 1-1.168.756 4.71 4.71 0 0 1-1.232.306 9.127 9.127 0 0 1-1.168.059H5.723L17.042.407l-.127-.153H1.135zm20.904 14.99a4.68 4.68 0 0 1-.03.641c-.021.221-.081.442-.17.654s-.238.412-.438.591c-.191.157-.404.28-.646.361-.238.085-.484.144-.739.178s-.497.059-.731.072l-.433.025v.331h17.896v-7.75h-.331l-.076.791c-.038.42-.098.837-.174 1.262a5.257 5.257 0 0 1-.391 1.224c-.179.4-.442.765-.786 1.109-.106.111-.263.242-.467.391s-.463.293-.782.434c-.319.145-.701.264-1.147.357s-.964.14-1.555.144h-5.838V3.11a3.922 3.922 0 0 1 .03-.556c.021-.221.081-.45.17-.688.094-.238.238-.45.438-.642.183-.161.395-.28.637-.361a3.85 3.85 0 0 1 .756-.179c.255-.034.497-.059.722-.072l.433-.025V.256H18.85v.331l.433.025c.225.013.468.038.727.072.255.034.506.094.752.179.242.08.455.2.637.361.2.191.348.403.438.642s.149.467.17.688c.025.221.034.408.03.556v12.135zM46.153 0l-5.557 13.409a19.536 19.536 0 0 1-.909 1.882c-.115.2-.213.361-.289.489-.081.136-.196.302-.336.489s-.319.378-.535.573a3.539 3.539 0 0 1-1.806.85l-.484.076v.331h9.152v-.331l-.637-.051c-.251-.017-.518-.06-.803-.127s-.552-.174-.807-.314a1.888 1.888 0 0 1-.633-.553 1.778 1.778 0 0 1-.285-.68 2.82 2.82 0 0 1-.043-.803c.021-.272.08-.527.174-.761l.969-2.371h6.526l1.147 2.804c.068.157.123.327.174.514.051.191.076.374.081.557-.004.378-.077.68-.221.901-.14.225-.323.391-.544.501-.115.068-.255.123-.416.166s-.357.081-.595.11c-.238.03-.531.055-.875.081l-.383.025v.331h9.993v-.331l-.408-.025a3.996 3.996 0 0 1-.892-.153 4.18 4.18 0 0 1-.807-.314 2.693 2.693 0 0 1-.62-.425 2.754 2.754 0 0 1-.429-.582 9.857 9.857 0 0 1-.467-.96c-.17-.395-.383-.901-.633-1.517L48.321-.001h-2.167zm3.059 10.325H43.96l2.6-6.271h.051l2.6 6.271zM65.91 2.294h1.886a5.733 5.733 0 0 1 1.292.131c.264.055.527.144.79.264.268.123.514.289.748.497.213.196.404.455.578.782.17.327.323.688.45 1.083.132.399.238.803.319 1.211s.132.794.157 1.156h.331V.254H56.197v7.164h.331c.025-.361.08-.748.161-1.156.077-.408.183-.812.314-1.211a6.61 6.61 0 0 1 .455-1.083c.17-.327.361-.587.574-.782.234-.208.48-.373.748-.497.264-.119.527-.208.791-.264.263-.06.506-.094.731-.11s.412-.026.561-.021h1.886v12.951c.004.149-.004.336-.03.557a2.67 2.67 0 0 1-.17.688c-.089.233-.238.45-.438.642-.183.157-.395.28-.637.361-.247.085-.497.14-.752.178-.259.034-.501.055-.726.072l-.434.025v.331h9.534v-.331l-.433-.025a12.579 12.579 0 0 1-.722-.072 4.136 4.136 0 0 1-.756-.178 1.894 1.894 0 0 1-.637-.361 1.82 1.82 0 0 1-.438-.642 2.711 2.711 0 0 1-.17-.688 4.099 4.099 0 0 1-.03-.557V2.294zM98.389.255h-7.648l-4.767 12.109h-.077L81.13.255h-7.954v.331l.433.025c.225.013.467.038.726.072.255.034.505.094.752.179.243.08.455.2.638.361.199.191.348.403.438.642s.148.467.17.688c.025.221.034.408.03.556v11.625c.004.196-.008.433-.034.714s-.086.565-.179.85a1.873 1.873 0 0 1-.425.731c-.166.161-.378.293-.629.395s-.51.178-.773.229a4.88 4.88 0 0 1-.714.089l-.433.025v.331h8.591v-.331l-.433-.025a5.021 5.021 0 0 1-.714-.089c-.263-.051-.522-.127-.773-.229s-.464-.234-.629-.395a1.667 1.667 0 0 1-.357-.553 2.952 2.952 0 0 1-.191-.654 6.14 6.14 0 0 1-.076-.62 10.453 10.453 0 0 1-.013-.467V2.728h.077L84.725 18.1h1.173l6.067-15.372h.077v12.517c.004.149-.004.336-.03.557a2.59 2.59 0 0 1-.17.688c-.089.233-.237.45-.438.642-.182.157-.395.28-.637.361-.246.085-.497.14-.752.178-.259.034-.501.055-.726.072l-.433.025v.331h9.534v-.331l-.434-.025a12.699 12.699 0 0 1-.723-.072 4.037 4.037 0 0 1-.752-.178 1.866 1.866 0 0 1-.641-.361 1.82 1.82 0 0 1-.438-.642c-.089-.238-.149-.467-.17-.688s-.034-.408-.029-.557V3.11c-.004-.149.008-.336.029-.556s.081-.45.17-.688c.094-.238.237-.45.438-.642.182-.161.395-.28.641-.361.243-.085.493-.145.752-.179a9.81 9.81 0 0 1 .723-.072l.434-.025V.256zM107.744 0l-5.557 13.409c-.187.437-.357.811-.51 1.117s-.285.561-.4.765c-.115.2-.213.361-.289.489-.081.136-.196.302-.336.489s-.319.378-.536.573a3.579 3.579 0 0 1-1.806.85l-.484.076v.331h9.152v-.331l-.638-.051c-.25-.017-.518-.06-.803-.127s-.552-.174-.807-.314a1.897 1.897 0 0 1-.633-.553 1.777 1.777 0 0 1-.284-.68 2.82 2.82 0 0 1-.043-.803c.022-.272.081-.527.175-.761l.968-2.371h6.526l1.147 2.804c.068.157.124.327.174.514.051.191.077.374.081.557-.004.378-.077.68-.221.901-.14.225-.323.391-.544.501-.115.068-.254.123-.416.166s-.357.081-.595.11c-.237.03-.531.055-.875.081l-.382.025v.331h9.994v-.331l-.408-.025a3.986 3.986 0 0 1-.892-.153 4.18 4.18 0 0 1-.807-.314 2.722 2.722 0 0 1-.621-.425 2.825 2.825 0 0 1-.429-.582 9.631 9.631 0 0 1-.467-.96c-.17-.395-.382-.901-.633-1.517L109.912-.001h-2.168zm3.06 10.325h-5.252l2.6-6.271h.051l2.601 6.271zm8.081-10.07v.331l.484.102c.31.072.629.208.956.403s.641.42.943.68c.302.259.57.518.804.777l5.889 6.552-4.971 5.787c-.085.106-.208.233-.361.386a17.286 17.286 0 0 1-1.02.939c-.162.14-.298.251-.404.331-.4.293-.833.548-1.3.756a7.22 7.22 0 0 1-1.377.467v.331h10.019v-.331l-.612-.051a8.133 8.133 0 0 1-1.113-.161 10.474 10.474 0 0 1-.519-.144 2.164 2.164 0 0 1-.513-.268 1.287 1.287 0 0 1-.4-.429c-.102-.174-.153-.391-.157-.654.004-.2.059-.408.162-.629s.217-.425.348-.612c.132-.187.242-.336.331-.442l3.238-3.773 3.492 3.849c.182.196.353.4.514.608.161.212.297.425.399.646.102.217.153.438.157.659a.978.978 0 0 1-.208.625 1.47 1.47 0 0 1-.531.395c-.234.115-.505.2-.807.255s-.604.089-.901.102l-.739.025v.331h10.707v-.331a4.568 4.568 0 0 1-.913-.217 4.737 4.737 0 0 1-1.05-.522 8.522 8.522 0 0 1-1.343-1.169 45.665 45.665 0 0 1-1.36-1.508l-5.43-6.068 3.442-3.977c.246-.285.506-.587.778-.909.276-.323.569-.637.883-.943.311-.306.65-.582 1.016-.824.226-.144.472-.285.748-.416s.565-.242.866-.34c.298-.098.591-.17.884-.213l.51-.076V.254h-10.248v.331l.637.051c.468.038.851.106 1.148.2s.527.208.688.336c.188.14.323.293.4.463.077.174.115.365.111.582-.004.255-.039.48-.111.684-.068.2-.153.374-.255.527s-.199.285-.297.395l-2.55 2.983-3.62-4.028c-.136-.153-.234-.289-.285-.408s-.077-.229-.072-.331a1.083 1.083 0 0 1 .149-.573c.102-.187.289-.353.565-.497.132-.06.285-.115.463-.161s.362-.085.544-.115c.183-.026.348-.047.497-.055l.586-.051V.256h-9.891zM.366 26.502a2.68 2.68 0 0 1 .782-.329c.148-.036.298-.054.45-.055.211 0 .396.036.553.108a.835.835 0 0 1 .369.316.959.959 0 0 1 .026.934c-.07.131-.169.244-.295.343a1.401 1.401 0 0 1-.441.231 1.762 1.762 0 0 1-.544.084h-.34v.576h.349c.152 0 .303.01.454.033.153.022.297.06.434.112.135.053.257.123.364.209s.191.195.252.323c.063.128.093.281.095.457 0 .217-.052.409-.156.576a1.06 1.06 0 0 1-.455.396 1.732 1.732 0 0 1-.734.146 2.524 2.524 0 0 1-.489-.053 3.028 3.028 0 0 1-.838-.306l-.2.594c.23.134.476.233.739.294a3.407 3.407 0 0 0 1.431.029c.208-.041.401-.103.582-.189s.34-.196.479-.33c.138-.135.246-.295.324-.483s.118-.403.119-.648c-.006-.284-.07-.53-.195-.739s-.294-.378-.509-.504a1.863 1.863 0 0 0-.736-.233v-.017c.23-.054.435-.149.617-.283s.328-.3.434-.498c.106-.197.16-.417.163-.66-.003-.304-.076-.564-.221-.777s-.346-.378-.605-.492a2.253 2.253 0 0 0-.902-.171 2.994 2.994 0 0 0-.869.123 2.705 2.705 0 0 0-.685.322l.2.559zm4.732-.899v2.48c.002.237-.003.482-.015.732-.01.25-.032.492-.066.726-.035.234-.086.446-.156.635s-.163.34-.279.457a1.238 1.238 0 0 1-.273.197 1.153 1.153 0 0 1-.346.118l.096.611c.115-.001.227-.014.339-.042a1.824 1.824 0 0 0 .569-.238c.163-.113.299-.258.407-.431.108-.175.194-.371.257-.589.064-.22.112-.453.143-.7.032-.249.052-.502.061-.762.01-.261.015-.518.013-.774v-1.781h1.938v5.247h.768v-5.884H5.097zm7.814 4.033.629 1.851h.812l-2.008-5.884h-.908l-2.008 5.884h.786l.611-1.851h2.087zm-1.93-.594.576-1.702c.061-.18.115-.36.162-.54.048-.179.093-.355.135-.525h.017c.042.169.089.344.137.521s.105.361.168.553l.585 1.694h-1.781zm5.351 2.445h.768v-5.238H18.9v-.646h-4.356v.646h1.789v5.238zm5.596-5.989a2.68 2.68 0 0 0-1.088.22 2.511 2.511 0 0 0-.863.624 2.87 2.87 0 0 0-.568.975c-.135.38-.203.803-.205 1.272.002.446.066.852.194 1.219.128.366.308.681.543.946s.514.468.837.612c.323.143.68.216 1.072.217.301 0 .589-.044.861-.13a2.477 2.477 0 0 0 1.341-1.008c.168-.249.299-.537.39-.865s.138-.694.14-1.097a3.743 3.743 0 0 0-.188-1.206 2.737 2.737 0 0 0-.534-.944 2.355 2.355 0 0 0-.837-.615 2.697 2.697 0 0 0-1.096-.22zm-.026.62a1.638 1.638 0 0 1 1.207.505c.15.157.275.338.374.541s.173.422.223.652c.048.231.073.466.073.703 0 .336-.042.652-.125.946s-.205.553-.365.777a1.77 1.77 0 0 1-.593.528 1.705 1.705 0 0 1-.803.194 1.724 1.724 0 0 1-.659-.127c-.198-.084-.373-.201-.525-.351s-.281-.326-.384-.525a2.712 2.712 0 0 1-.237-.655 3.601 3.601 0 0 1-.004-1.483 2.74 2.74 0 0 1 .227-.67c.101-.205.227-.386.378-.541s.329-.275.531-.361c.202-.087.429-.131.682-.132zm3.021-.515 1.956 3.981c.035.069.057.128.063.182s-.006.112-.036.176a3.1 3.1 0 0 1-.176.333c-.07.117-.151.224-.246.326s-.202.183-.323.247a.899.899 0 0 1-.407.098c-.065 0-.12-.002-.167-.006s-.086-.012-.121-.02l-.07.62a.804.804 0 0 0 .174.039c.07.009.154.013.253.013.26 0 .501-.061.719-.182.218-.122.422-.302.608-.543.105-.137.207-.291.304-.465.099-.175.194-.36.285-.556s.18-.397.265-.601c.086-.205.167-.406.246-.604l1.24-3.038h-.803l-.925 2.497-.192.575c-.058.173-.113.335-.166.482h-.026c-.066-.17-.133-.341-.202-.512s-.143-.343-.217-.518l-1.17-2.523h-.864zm9.148 5.089c-.103.049-.221.093-.355.13s-.276.064-.428.084c-.153.021-.307.03-.465.03-.476-.003-.882-.099-1.216-.291s-.591-.464-.768-.817c-.177-.352-.267-.771-.268-1.257.001-.387.057-.73.164-1.032.109-.3.265-.554.465-.761.202-.208.444-.365.725-.473s.595-.161.941-.161c.246.001.468.024.667.07s.37.103.511.174l.192-.62a1.843 1.843 0 0 0-.291-.115 3.168 3.168 0 0 0-.465-.102 4.438 4.438 0 0 0-.641-.045c-.458.002-.874.076-1.25.223s-.698.357-.97.629-.482.598-.629.975c-.148.378-.222.8-.224 1.264.003.485.076.912.22 1.285a2.55 2.55 0 0 0 1.527 1.508 3.34 3.34 0 0 0 1.153.194c.24-.001.46-.015.661-.041.2-.027.378-.063.529-.105s.272-.086.364-.134l-.149-.611zm2.226.795h.768v-5.238h1.799v-.646h-4.356v.646h1.789v5.238zm5.596-5.989a2.68 2.68 0 0 0-1.088.22 2.498 2.498 0 0 0-.862.624 2.87 2.87 0 0 0-.568.975 3.8 3.8 0 0 0-.205 1.272c.002.446.065.852.194 1.219.128.366.309.681.543.946s.514.468.836.612c.323.143.68.216 1.073.217.301 0 .589-.044.861-.13a2.494 2.494 0 0 0 1.342-1.008c.168-.249.299-.537.39-.865s.138-.694.14-1.097a3.743 3.743 0 0 0-.188-1.206 2.721 2.721 0 0 0-.534-.944c-.231-.266-.511-.471-.837-.615s-.691-.219-1.096-.22zm-.026.62a1.642 1.642 0 0 1 1.208.505c.15.157.275.338.374.541s.173.422.222.652c.048.231.073.466.073.703 0 .336-.042.652-.125.946s-.205.553-.365.777a1.77 1.77 0 0 1-.593.528 1.705 1.705 0 0 1-.803.194 1.724 1.724 0 0 1-.659-.127c-.198-.084-.373-.201-.525-.351s-.281-.326-.384-.525a2.712 2.712 0 0 1-.237-.655 3.601 3.601 0 0 1-.004-1.483 2.74 2.74 0 0 1 .227-.67c.101-.205.227-.386.378-.541s.329-.275.531-.361c.202-.087.429-.131.682-.132zm3.666 5.351c.127.018.289.033.487.048.198.013.43.02.691.022.48 0 .888-.044 1.223-.134.336-.09.604-.228.803-.416a1.538 1.538 0 0 0 .507-1.179 1.509 1.509 0 0 0-.111-.579 1.391 1.391 0 0 0-.286-.432 1.68 1.68 0 0 0-.817-.455v-.026c.205-.074.381-.176.53-.304s.263-.276.343-.445c.08-.169.121-.349.122-.543a1.342 1.342 0 0 0-.134-.608 1.215 1.215 0 0 0-.364-.431c-.118-.099-.253-.18-.406-.243s-.329-.109-.525-.14a4.402 4.402 0 0 0-.675-.046 7.592 7.592 0 0 0-.996.062c-.15.019-.28.043-.392.069v5.779zm.76-5.273c.06-.015.143-.026.25-.036s.249-.016.422-.016c.258-.002.483.032.674.098a.903.903 0 0 1 .448.311c.106.141.16.324.161.551a.9.9 0 0 1-.151.511c-.1.148-.245.266-.434.352a1.643 1.643 0 0 1-.681.133h-.69v-1.903zm0 2.471h.629c.209 0 .405.022.588.066.182.044.343.112.483.203s.249.209.328.354c.078.142.119.314.12.512-.001.212-.044.393-.125.54s-.193.265-.335.354c-.143.089-.303.153-.483.192s-.37.06-.568.058a9.45 9.45 0 0 1-.361-.007 2.608 2.608 0 0 1-.276-.028v-2.243zm7.927 2.025c-.103.049-.221.093-.355.13s-.277.064-.428.084c-.153.021-.307.03-.465.03-.476-.003-.882-.099-1.217-.291s-.591-.464-.768-.817c-.178-.352-.267-.771-.268-1.257.001-.387.056-.73.165-1.032.109-.3.265-.554.465-.761.202-.208.444-.365.725-.473s.595-.161.941-.161c.246.001.468.024.668.07s.37.103.511.174l.192-.62a1.843 1.843 0 0 0-.291-.115 3.139 3.139 0 0 0-.465-.102 4.434 4.434 0 0 0-.64-.045c-.458.002-.874.076-1.25.223s-.698.357-.97.629-.482.598-.629.975c-.148.378-.222.8-.224 1.264.003.485.076.912.22 1.285.144.371.346.683.608.935.26.253.566.443.918.573a3.34 3.34 0 0 0 1.153.194c.24-.001.46-.015.661-.041.2-.027.378-.063.53-.105s.272-.086.364-.134l-.149-.611zm1.108-5.089v5.884h.76v-2.698h.245c.247 0 .46.032.637.095.176.064.327.153.451.269.123.115.228.253.314.413.087.16.163.337.23.532.055.156.111.315.166.476.055.163.114.321.174.477.061.154.128.3.201.435h.812a8.023 8.023 0 0 1-.23-.531c-.07-.181-.136-.364-.203-.553s-.138-.383-.213-.584a4.207 4.207 0 0 0-.246-.554 2.005 2.005 0 0 0-.324-.454c-.125-.133-.275-.243-.451-.331s-.386-.147-.629-.18l2.226-2.698h-.908l-2.017 2.61h-.236v-2.61h-.76zm4.732 0v5.884h.812l1.842-2.933c.204-.324.399-.653.588-.986s.358-.662.503-.987l.026.009c-.02.246-.035.491-.045.737-.01.248-.016.506-.02.776-.003.271-.005.563-.005.879v2.506h.716v-5.884h-.759l-1.903 3.029c-.214.348-.412.684-.594 1.007a15.26 15.26 0 0 0-.489.94l-.026-.009c.018-.26.031-.524.041-.789s.018-.537.024-.817c.004-.281.006-.575.006-.882v-2.48h-.716zm8.783 2.497h-2.279v-1.859h2.418v-.638h-3.187v5.884h3.318v-.637h-2.549v-2.121h2.279V28.1zm49.363-2.497v5.884h.768v-2.759h2.847v2.759h.768v-5.884h-.768v2.462h-2.847v-2.462h-.768zm8.075-.105c-.394.001-.758.074-1.089.22s-.618.354-.862.624a2.886 2.886 0 0 0-.568.975c-.135.38-.203.803-.205 1.272.001.446.066.852.194 1.219.128.366.308.681.543.946s.513.468.836.612c.323.143.679.216 1.072.217.301 0 .589-.044.862-.13a2.489 2.489 0 0 0 1.341-1.008c.167-.249.299-.537.39-.865s.138-.694.14-1.097a3.743 3.743 0 0 0-.188-1.206 2.737 2.737 0 0 0-.534-.944 2.352 2.352 0 0 0-.836-.615 2.692 2.692 0 0 0-1.095-.22zm-.027.62a1.642 1.642 0 0 1 1.209.505c.15.157.275.338.374.541s.173.422.222.652c.048.231.073.466.073.703 0 .336-.042.652-.125.946s-.205.553-.365.777c-.162.224-.358.4-.592.528a1.705 1.705 0 0 1-.803.194 1.724 1.724 0 0 1-.659-.127c-.199-.084-.373-.201-.525-.351s-.281-.326-.385-.525c-.105-.201-.183-.419-.237-.655s-.08-.48-.08-.735c0-.257.025-.508.076-.748.049-.24.125-.464.226-.67.101-.205.228-.386.379-.541s.329-.275.531-.361c.202-.087.429-.131.682-.132zm3.195-.515 2.078 2.707a1.848 1.848 0 0 0-.592.167c-.166.083-.31.189-.43.32s-.225.284-.315.457c-.089.173-.17.366-.243.575-.063.183-.124.368-.183.554s-.121.371-.187.556a6.3 6.3 0 0 1-.224.548h.777c.064-.132.122-.279.178-.44.054-.16.106-.32.156-.483s.097-.316.147-.457c.068-.202.143-.383.221-.546.08-.162.175-.3.286-.414s.247-.204.41-.265c.161-.061.359-.093.594-.093h.271v2.698h.733v-2.698h.262a1.7 1.7 0 0 1 .595.093c.161.061.298.15.409.265s.205.253.285.414c.078.163.153.344.221.546.047.141.094.294.143.457.048.163.1.323.154.483s.117.307.183.44h.777c-.08-.18-.153-.364-.215-.548s-.124-.371-.18-.559a18.257 18.257 0 0 0-.181-.56c-.072-.211-.154-.403-.244-.578s-.196-.327-.319-.46a1.458 1.458 0 0 0-.436-.319 1.76 1.76 0 0 0-.598-.154l2.086-2.707h-.881l-1.825 2.61h-.236v-2.61h-.733v2.61h-.237l-1.824-2.61h-.882zm7.465 0v5.884h.812l1.842-2.933c.204-.324.399-.653.588-.986s.358-.662.503-.987l.026.009a20.232 20.232 0 0 0-.065 1.513c-.003.271-.005.563-.005.879v2.506h.717v-5.884h-.76l-1.903 3.029c-.214.348-.412.684-.594 1.007-.182.322-.345.636-.489.94l-.026-.009a33.284 33.284 0 0 0 .064-1.606c.004-.281.006-.575.006-.882v-2.48h-.716z"/></svg><svg viewBox="0 0 30 32" id="phone" xmlns="http://www.w3.org/2000/svg"><path d="m29.229 23.359-3.73-3.937a2.544 2.544 0 0 0-3.73 0l-1.695 1.79a1.926 1.926 0 0 1-2.825 0l-7.348-7.764a2.192 2.192 0 0 1 0-2.983l1.695-1.79c1.024-1.081 1.038-2.841-.001-3.938L7.866.813A2.543 2.543 0 0 0 4.139.81L2.78 2.232c-3.708 3.914-3.708 10.283 0 14.197l11.643 12.297c3.717 3.923 9.732 3.924 13.449 0l1.356-1.432c1.028-1.085 1.028-2.852 0-3.937zM5.38 2.127a.847.847 0 0 1 1.244.001l3.729 3.924a.963.963 0 0 1 0 1.312l-.622.656-4.97-5.246.618-.647zm10.287 25.289L4.024 15.119C1.155 12.091.998 7.335 3.539 4.108l4.955 5.231c-1.302 1.558-1.248 3.932.163 5.422l7.348 7.763c1.41 1.488 3.659 1.549 5.136.173l4.955 5.231c-3.047 2.678-7.542 2.537-10.43-.512zm12.319-1.432-.622.656-4.973-5.25.622-.656a.847.847 0 0 1 1.243 0l3.73 3.937a.965.965 0 0 1 0 1.312z"/></svg><svg viewBox="0 0 35 32" id="search" xmlns="http://www.w3.org/2000/svg"><path d="M12 21.333a9.333 9.333 0 1 1 0-18.666 9.333 9.333 0 1 1 0 18.666zM12 24c6.627 0 12-5.373 12-12S18.627 0 12 0 0 5.373 0 12s5.373 12 12 12z"/><path d="M31.079 30.981 18.667 18.667l1.893-1.878 12.412 12.314-1.893 1.878z"/></svg><svg viewBox="0 0 24 32" id="user" xmlns="http://www.w3.org/2000/svg"><path d="M11.69 16.896h.183c1.682-.032 3.043-.683 4.047-1.928 2.21-2.743 1.843-7.446 1.803-7.895-.143-3.369-1.59-4.981-2.784-5.733-.89-.563-1.929-.866-3.088-.891h-.097c-.637 0-1.889.114-3.088.866-1.206.752-2.675 2.364-2.819 5.758-.04.449-.408 5.152 1.803 7.895.999 1.245 2.359 1.896 4.041 1.928zM7.379 7.231c0-.019.006-.038.006-.051.189-4.532 3.111-5.019 4.363-5.019h.069c1.55.038 4.185.733 4.363 5.019 0 .019 0 .038.006.051.006.044.408 4.342-1.418 6.605-.723.898-1.688 1.34-2.956 1.353h-.058c-1.263-.013-2.233-.455-2.951-1.353-1.82-2.25-1.429-6.567-1.424-6.605z"/><path d="M23.579 24.696v-.019c0-.051-.006-.101-.006-.158-.034-1.252-.109-4.178-2.601-5.114l-.057-.019c-2.589-.727-4.742-2.37-4.765-2.389-.35-.272-.832-.177-1.079.209s-.161.917.189 1.188c.098.076 2.382 1.827 5.241 2.636 1.338.525 1.487 2.099 1.527 3.54 0 .057 0 .107.006.158.006.569-.029 1.448-.121 1.953-.93.582-4.575 2.592-10.121 2.592-5.523 0-9.191-2.016-10.127-2.598-.092-.506-.132-1.384-.121-1.953 0-.051.006-.101.006-.158.04-1.441.189-3.015 1.527-3.54 2.859-.809 5.144-2.566 5.241-2.636.35-.272.436-.803.189-1.188s-.729-.48-1.079-.209c-.023.019-2.164 1.662-4.765 2.389-.023.006-.04.013-.057.019C.115 20.341.04 23.267.005 24.513c0 .057 0 .107-.006.158v.019c-.006.329-.011 2.016.293 2.863a.798.798 0 0 0 .299.398c.172.126 4.3 3.021 11.206 3.021s11.034-2.901 11.206-3.021a.84.84 0 0 0 .299-.398c.287-.841.281-2.528.276-2.857z"/></svg></svg>