<?xml version="1.0" standalone="no"?>
<!DOCTYPE svg PUBLIC "-//W3C//DTD SVG 20010904//EN"
 "http://www.w3.org/TR/2001/REC-SVG-20010904/DTD/svg10.dtd">
<svg version="1.0" xmlns="http://www.w3.org/2000/svg"
 width="512.000000pt" height="512.000000pt" viewBox="0 0 512.000000 512.000000"
 preserveAspectRatio="xMidYMid meet">
<metadata>
Created by potrace 1.14, written by Peter Selinger 2001-2017
</metadata>
<g transform="translate(0.000000,512.000000) scale(0.100000,-0.100000)"
fill="#000000" stroke="none">
<path d="M2494 5100 c-63 -28 -56 -16 -249 -430 -34 -74 -84 -180 -110 -235
-26 -55 -77 -165 -115 -245 -37 -80 -91 -194 -119 -255 -29 -60 -75 -159 -104
-220 -76 -163 -91 -188 -107 -190 -8 -1 -35 -5 -60 -8 -25 -4 -72 -11 -105
-16 -33 -6 -80 -13 -105 -16 -25 -3 -52 -7 -60 -10 -8 -2 -35 -6 -60 -9 -25
-3 -54 -8 -65 -10 -11 -2 -42 -7 -70 -10 -27 -4 -75 -11 -105 -16 -75 -13
-107 -18 -160 -25 -25 -3 -70 -10 -100 -15 -53 -9 -123 -19 -165 -25 -51 -7
-121 -18 -260 -40 -82 -13 -170 -26 -195 -30 -74 -10 -107 -24 -139 -60 -34
-39 -45 -79 -36 -132 8 -51 10 -54 202 -250 92 -94 287 -294 433 -443 577
-591 551 -563 545 -590 -3 -14 -8 -42 -11 -64 -3 -21 -7 -48 -10 -59 -2 -12
-6 -39 -9 -62 -4 -22 -15 -89 -25 -150 -11 -60 -22 -128 -25 -150 -3 -22 -10
-65 -15 -95 -10 -58 -13 -75 -29 -180 -6 -36 -13 -74 -15 -85 -3 -19 -12 -72
-22 -140 -3 -16 -9 -55 -14 -85 -5 -30 -12 -73 -15 -95 -4 -22 -9 -53 -11 -70
-3 -16 -12 -68 -19 -115 -8 -47 -17 -103 -21 -125 -3 -22 -9 -56 -13 -75 -4
-19 -9 -62 -10 -95 -2 -75 23 -119 87 -152 71 -35 97 -28 287 79 44 25 121 67
170 93 50 27 102 56 117 67 14 10 29 18 33 18 3 0 37 17 73 39 37 21 92 51
122 68 127 69 199 108 265 146 39 22 99 55 135 74 36 20 79 43 95 53 17 9 57
32 90 50 33 18 84 46 113 62 l53 29 167 -92 c92 -51 187 -104 212 -117 25 -14
63 -35 85 -48 22 -13 67 -37 100 -54 33 -18 65 -35 70 -40 6 -4 42 -24 80 -45
39 -21 88 -48 110 -60 58 -31 132 -72 285 -157 74 -42 156 -87 183 -102 26
-14 68 -38 95 -52 136 -76 279 21 251 171 -5 22 -24 139 -44 260 -19 121 -37
231 -40 245 -3 14 -7 43 -10 65 -3 22 -7 51 -10 65 -3 14 -8 43 -11 65 -5 42
-9 65 -24 155 -5 30 -12 70 -15 88 -3 17 -7 44 -10 60 -2 15 -23 140 -45 277
-52 315 -49 300 -55 333 -5 30 -32 1 570 617 172 176 368 376 435 445 67 69
133 139 146 156 47 60 41 155 -14 207 -34 32 -65 44 -139 53 -32 3 -60 8 -63
9 -3 2 -26 6 -50 10 -44 6 -151 22 -200 30 -14 2 -43 6 -65 10 -23 3 -52 7
-65 10 -14 3 -45 7 -70 10 -25 3 -83 12 -130 19 -47 8 -121 19 -165 26 -44 6
-102 16 -130 20 -27 5 -70 12 -95 15 -25 3 -56 8 -70 10 -14 3 -40 7 -57 10
-18 3 -45 7 -60 9 -16 3 -80 12 -143 21 -63 10 -122 19 -130 20 -8 2 -19 4
-23 4 -4 1 -27 43 -51 94 -24 50 -94 200 -156 332 -62 132 -130 278 -152 325
-22 47 -90 191 -150 320 -198 422 -209 445 -235 472 -40 42 -121 55 -179 28z"/>
</g>
</svg>
